<svg id="Group_72690" data-name="Group 72690" xmlns="http://www.w3.org/2000/svg" width="147.057" height="59.296" viewBox="0 0 147.057 59.296">
  <path id="Path_55777" data-name="Path 55777" d="M45.739,5.45l3.7,14.231,14.231,3.7-14.231,3.7-3.7,14.231-3.7-14.231-14.231-3.7,14.231-3.7Z" transform="translate(15.236 2.986)" fill="#70434a"/>
  <path id="Path_55778" data-name="Path 55778" d="M19.053,43.033A18.571,18.571,0,0,1,9.412,40.45a18.885,18.885,0,0,1-6.887-7.288A23.22,23.22,0,0,1,0,22.029a22.969,22.969,0,0,1,1.549-8.551A20.509,20.509,0,0,1,5.8,6.764a19.4,19.4,0,0,1,6.2-4.361A18.088,18.088,0,0,1,19.4.853a15.1,15.1,0,0,1,4.534.631A29.485,29.485,0,0,1,27.2,2.689q1.492.631,2.066.861a4,4,0,0,0,1.377.23,1.076,1.076,0,0,0,1.09-.689,3.419,3.419,0,0,0,.344-1.435h1.435l-.115,6.6.115,6.714H32.08a11.845,11.845,0,0,0-2.066-6.657,12.237,12.237,0,0,0-4.821-4.247,12.775,12.775,0,0,0-5.968-1.492q-6.714,0-10.043,5.05t-3.329,14.4q0,9.871,3.558,14.577A11.8,11.8,0,0,0,19.4,41.311a14.615,14.615,0,0,0,5.681-1.033,10.28,10.28,0,0,0,3.9-2.7,5.514,5.514,0,0,0,1.435-3.558V32.416A4.678,4.678,0,0,0,29.21,28.8q-1.148-1.09-4.3-1.377l-2.468-.23V25.816l9.526.23,8.838-.23v1.377l-2.582.23A3.611,3.611,0,0,0,35.7,28.628a5.7,5.7,0,0,0-.976,3.788v1.033a7.418,7.418,0,0,0,.4,2.468q.459,1.148.861,1.951l.8,1.435-1.32.861a4.389,4.389,0,0,0-1.492-1.607,2.272,2.272,0,0,0-1.205-.459,3.111,3.111,0,0,0-1.664.459q-.746.459-1.607,1.09-.976.688-2.353,1.492a12.388,12.388,0,0,1-3.271,1.32A17.321,17.321,0,0,1,19.053,43.033Z" transform="translate(0 0.467)" fill="#70434a"/>
  <path id="Path_55779" data-name="Path 55779" d="M23.06,41.778v-1.32l.918-.115a14.961,14.961,0,0,0,2.525-.516,2.089,2.089,0,0,0,1.263-1.435,14.329,14.329,0,0,0,.344-3.73V6.657q0-2.984-1.263-3.788a5.753,5.753,0,0,0-3.386-.861h-.4V.689q2.353,0,4.534-.115Q29.774.4,32.127,0V34.662a14.331,14.331,0,0,0,.344,3.73,2.108,2.108,0,0,0,1.205,1.435,16.815,16.815,0,0,0,2.582.516l.918.115v1.32l-7.059-.172Z" transform="translate(12.636)" fill="#70434a"/>
  <path id="Path_55780" data-name="Path 55780" d="M58.322,36.264,51.263,16.809a9.848,9.848,0,0,0-1.607-2.984A3.3,3.3,0,0,0,47.3,12.62l-.631-.057v-1.32l6.083.172,5.624-.172v1.32l-.574.057q-2.869.23-2.869,2.181a5.3,5.3,0,0,0,.057.746,4.144,4.144,0,0,0,.23.861L60.79,31.845l6.37-14.4a13.07,13.07,0,0,0,.459-1.263,3.273,3.273,0,0,0,.23-1.09A2.2,2.2,0,0,0,65.5,12.62l-1.779-.057v-1.32h2.008a3.3,3.3,0,0,1,3.1,1.722,2.266,2.266,0,0,1,1.549-1.32,6.97,6.97,0,0,1,2.181-.4h2.64v1.32l-.861.057a1.946,1.946,0,0,0-1.492.631,1.913,1.913,0,0,0-.459,1.32,5.813,5.813,0,0,0,.459,1.951L78.81,31.787l5.968-15.15q.115-.4.287-.976a2.648,2.648,0,0,0,.23-.918q0-1.722-2.812-2.066l-.918-.115v-1.32l5.395.172,4.534-.172v1.32l-.918.115A3.858,3.858,0,0,0,87.7,14.112a16.3,16.3,0,0,0-1.435,2.7L78.58,36.264H76.4l-7.46-19.225L60.5,36.264Z" transform="translate(25.575 6.16)" fill="#70434a"/>
  <path id="Path_55781" data-name="Path 55781" d="M78.4,53.136a3.975,3.975,0,0,1-2.927-.976,2.78,2.78,0,0,1-.976-2.066,2.57,2.57,0,0,1,.861-1.951,2.916,2.916,0,0,1,2.066-.746,2.864,2.864,0,0,1,1.263.23q.459.287.861.574a9.657,9.657,0,0,0,.918.574,2.122,2.122,0,0,0,1.205.344,3.6,3.6,0,0,0,2.123-.8,8.626,8.626,0,0,0,2.353-3.328l3.788-8.149L80.41,15.948a9.645,9.645,0,0,0-1.263-2.181,3.05,3.05,0,0,0-2.123-1.033l-1.32-.172v-1.32l5.968.172,5.8-.172v1.32l-.8.115q-2.41.344-2.41,1.779a5.63,5.63,0,0,0,.631,2.066l7.173,15.724,7.174-15.437a6.084,6.084,0,0,0,.631-2.238q0-1.549-2.812-1.894l-.918-.115v-1.32l5.509.172,4.591-.172v1.32l-.861.115a4.475,4.475,0,0,0-3.1,1.549,16.566,16.566,0,0,0-1.721,3.1L87.583,45.618A22.111,22.111,0,0,1,85.4,49.291a9.546,9.546,0,0,1-2.927,2.755A7.275,7.275,0,0,1,78.4,53.136Z" transform="translate(40.823 6.16)" fill="#70434a"/>
</svg>
