<svg id="Group_74041" data-name="Group 74041" xmlns="http://www.w3.org/2000/svg" width="32" height="32" viewBox="0 0 32 32">
  <path id="Path_57648" data-name="Path 57648" d="M0,0H32V32H0Z" fill="none"/>
  <path id="Path_57649" data-name="Path 57649" d="M16.158,3h.575a10.738,10.738,0,0,0-1.787,13.752,11.038,11.038,0,0,0,13.367,4.225,13.2,13.2,0,0,1-15.566,7.565A12.983,12.983,0,0,1,16.158,2.992Z" transform="translate(0)" fill="none" stroke="#39383a" stroke-linecap="round" stroke-linejoin="round" stroke-width="2"/>
  <path id="Path_57650" data-name="Path 57650" d="M17,4a2,2,0,0,0,2,2,2,2,0,0,0-2,2,2,2,0,0,0-2-2,2,2,0,0,0,2-2" transform="translate(6 1.6)" fill="none" stroke="#39383a" stroke-linecap="round" stroke-linejoin="round" stroke-width="2"/>
  <path id="Path_57651" data-name="Path 57651" d="M19,11h2m-1-1v2" transform="translate(8 3.636)" fill="none" stroke="#39383a" stroke-linecap="round" stroke-linejoin="round" stroke-width="2"/>
</svg>
