<svg id="Group_74043" data-name="Group 74043" xmlns="http://www.w3.org/2000/svg" width="30" height="30" viewBox="0 0 30 30">
  <path id="Path_57652" data-name="Path 57652" d="M0,0H30V30H0Z" fill="none"/>
  <path id="Path_57653" data-name="Path 57653" d="M24.614,10.475l-7.333-5.7a3.666,3.666,0,0,0-4.5,0l-7.334,5.7A3.663,3.663,0,0,0,4.03,13.368v9.9a2.75,2.75,0,0,0,2.75,2.749h16.5a2.75,2.75,0,0,0,2.75-2.749v-9.9a3.664,3.664,0,0,0-1.416-2.894" fill="none" stroke="#39383a" stroke-linecap="round" stroke-linejoin="round" stroke-width="1.8"/>
  <path id="Path_57654" data-name="Path 57654" d="M16,15a8.5,8.5,0,0,1-8,0" transform="translate(3 3.913)" fill="none" stroke="#39383a" stroke-linecap="round" stroke-linejoin="round" stroke-width="1.8"/>
</svg>
