<svg id="export" xmlns="http://www.w3.org/2000/svg" width="27.6" height="27.6" viewBox="0 0 27.6 27.6">
  <path id="Vector" d="M13.315,13.867H6.9c-4.832,0-6.9-2.067-6.9-6.9V6.841C0,2.472,1.722.366,5.58,0a.76.76,0,0,1,.807.669.74.74,0,0,1-.669.807c-3.09.285-4.241,1.742-4.241,5.373v.128c0,4.005,1.417,5.422,5.422,5.422h6.416c4.005,0,5.422-1.417,5.422-5.422V6.851c0-3.651-1.171-5.107-4.32-5.373A.736.736,0,1,1,14.545.012c3.917.335,5.668,2.45,5.668,6.849v.128C20.213,11.8,18.147,13.867,13.315,13.867Z" transform="translate(3.693 10.017)" fill="#70434a"/>
  <path id="Vector-2" data-name="Vector" d="M.738,12.675A.743.743,0,0,1,0,11.937V.738A.743.743,0,0,1,.738,0a.743.743,0,0,1,.738.738v11.2A.743.743,0,0,1,.738,12.675Z" transform="translate(13.062 4.815)" fill="#70434a"/>
  <path id="Vector-3" data-name="Vector" d="M7.329,4.77a.73.73,0,0,1-.522-.216L4.032,1.779,1.257,4.554A.738.738,0,0,1,.214,3.511l3.3-3.3a.743.743,0,0,1,1.043,0l3.3,3.3a.742.742,0,0,1,0,1.043A.714.714,0,0,1,7.329,4.77Z" transform="translate(9.768 3.715)" fill="#70434a"/>
  <path id="Vector-4" data-name="Vector" d="M0,0H27.6V27.6H0Z" fill="none" opacity="0"/>
</svg>
