<svg xmlns="http://www.w3.org/2000/svg" width="40.689" height="40.382" viewBox="0 0 40.689 40.382">
  <g id="Group_69411" data-name="Group 69411" transform="translate(0.75 0.75)">
    <path id="Path_51952" data-name="Path 51952" d="M15.609,40.882H27.273c9.721,0,13.609-3.888,13.609-13.609V15.609C40.882,5.888,36.994,2,27.273,2H15.609C5.888,2,2,5.888,2,15.609V27.273C2,36.994,5.888,40.882,15.609,40.882Z" transform="translate(-2 -2)" fill="none" stroke="#39383a" stroke-linecap="round" stroke-linejoin="round" stroke-width="1.5"/>
    <path id="Path_51953" data-name="Path 51953" d="M10.888,13.776A3.888,3.888,0,1,0,7,9.888,3.888,3.888,0,0,0,10.888,13.776Z" transform="translate(2.72 1.776)" fill="none" stroke="#70434a" stroke-linecap="round" stroke-linejoin="round" stroke-width="1.5"/>
    <path id="Path_51954" data-name="Path 51954" d="M2.67,25.514l9.584-6.435a4.38,4.38,0,0,1,5.132.272l.642.564a4.334,4.334,0,0,0,5.482,0l8.087-6.94a4.334,4.334,0,0,1,5.482,0L40.249,15.7" transform="translate(-1.368 7.439)" fill="none" stroke="#70434a" stroke-linecap="round" stroke-linejoin="round" stroke-width="1.5"/>
  </g>
</svg>
