<svg xmlns="http://www.w3.org/2000/svg" width="28" height="28" viewBox="0 0 28 28">
  <g id="vuesax_outline_element-3" data-name="vuesax/outline/element-3" transform="translate(-620 -252)">
    <g id="element-3" transform="translate(620 252)">
      <path id="Vector" d="M8.19,11.667H3.477C1.132,11.667,0,10.628,0,8.482v-5.3C0,1.038,1.143,0,3.477,0H8.19c2.345,0,3.477,1.038,3.477,3.185V8.47C11.667,10.628,10.523,11.667,8.19,11.667ZM3.477,1.75c-1.563,0-1.727.443-1.727,1.435V8.47c0,1,.163,1.435,1.727,1.435H8.19c1.563,0,1.727-.443,1.727-1.435V3.185c0-1-.163-1.435-1.727-1.435Z" transform="translate(14.875 1.458)" fill="#39383a"/>
      <path id="Vector-2" data-name="Vector" d="M8.19,11.667H3.477C1.132,11.667,0,10.523,0,8.19V3.477C0,1.132,1.143,0,3.477,0H8.19c2.345,0,3.477,1.143,3.477,3.477V8.19C11.667,10.523,10.523,11.667,8.19,11.667ZM3.477,1.75C2.1,1.75,1.75,2.1,1.75,3.477V8.19c0,1.377.35,1.727,1.727,1.727H8.19c1.377,0,1.727-.35,1.727-1.727V3.477c0-1.377-.35-1.727-1.727-1.727Z" transform="translate(14.875 14.875)" fill="#39383a"/>
      <path id="Vector-3" data-name="Vector" d="M8.19,11.667H3.477C1.132,11.667,0,10.628,0,8.482v-5.3C0,1.038,1.143,0,3.477,0H8.19c2.345,0,3.477,1.038,3.477,3.185V8.47C11.667,10.628,10.523,11.667,8.19,11.667ZM3.477,1.75c-1.563,0-1.727.443-1.727,1.435V8.47c0,1,.163,1.435,1.727,1.435H8.19c1.563,0,1.727-.443,1.727-1.435V3.185c0-1-.163-1.435-1.727-1.435Z" transform="translate(1.458 1.458)" fill="#39383a"/>
      <path id="Vector-4" data-name="Vector" d="M8.19,11.667H3.477C1.132,11.667,0,10.523,0,8.19V3.477C0,1.132,1.143,0,3.477,0H8.19c2.345,0,3.477,1.143,3.477,3.477V8.19C11.667,10.523,10.523,11.667,8.19,11.667ZM3.477,1.75C2.1,1.75,1.75,2.1,1.75,3.477V8.19c0,1.377.35,1.727,1.727,1.727H8.19c1.377,0,1.727-.35,1.727-1.727V3.477c0-1.377-.35-1.727-1.727-1.727Z" transform="translate(1.458 14.875)" fill="#39383a"/>
      <path id="Vector-5" data-name="Vector" d="M0,0H28V28H0Z" fill="none" opacity="0"/>
    </g>
  </g>
</svg>
