<svg xmlns="http://www.w3.org/2000/svg" width="28" height="28" viewBox="0 0 28 28">
  <g id="vuesax_outline_row-vertical" data-name="vuesax/outline/row-vertical" transform="translate(-236 -188)">
    <g id="row-vertical" transform="translate(236 188)">
      <path id="Vector" d="M21.758,11.667H3.325C1.085,11.667,0,10.523,0,8.19V3.477C0,1.132,1.085,0,3.325,0H21.758C24,0,25.083,1.143,25.083,3.477V8.19C25.083,10.523,24,11.667,21.758,11.667ZM3.325,1.75c-1.178,0-1.575.245-1.575,1.727V8.19c0,1.482.4,1.727,1.575,1.727H21.758c1.178,0,1.575-.245,1.575-1.727V3.477c0-1.482-.4-1.727-1.575-1.727Z" transform="translate(1.458 14.875)" fill="#39383a"/>
      <path id="Vector-2" data-name="Vector" d="M21.758,11.667H3.325C1.085,11.667,0,10.523,0,8.19V3.477C0,1.132,1.085,0,3.325,0H21.758C24,0,25.083,1.143,25.083,3.477V8.19C25.083,10.523,24,11.667,21.758,11.667ZM3.325,1.75C2.147,1.75,1.75,2,1.75,3.477V8.19c0,1.482.4,1.727,1.575,1.727H21.758c1.178,0,1.575-.245,1.575-1.727V3.477c0-1.482-.4-1.727-1.575-1.727Z" transform="translate(1.458 1.458)" fill="#39383a"/>
      <path id="Vector-3" data-name="Vector" d="M0,0H28V28H0Z" fill="none" opacity="0"/>
    </g>
  </g>
</svg>
