<svg xmlns="http://www.w3.org/2000/svg" width="16" height="18" viewBox="0 0 16 18">
  <path id="rhombus-svgrepo-com" d="M5.28,14.341a5.4,5.4,0,0,1-1.191-1.714,2.253,2.253,0,0,1,0-1.254A5.4,5.4,0,0,1,5.28,9.659L9.148,5.086c.979-1.158,1.469-1.736,2.055-1.948a2.353,2.353,0,0,1,1.593,0c.586.211,1.076.79,2.055,1.948L18.72,9.659a5.4,5.4,0,0,1,1.191,1.714,2.252,2.252,0,0,1,0,1.254,5.4,5.4,0,0,1-1.191,1.714l-3.868,4.573c-.979,1.158-1.469,1.736-2.055,1.948a2.353,2.353,0,0,1-1.593,0c-.586-.211-1.076-.79-2.055-1.948Z" transform="translate(-4 -3)" fill="#70434a"/>
</svg>
