<svg id="Group_74068" data-name="Group 74068" xmlns="http://www.w3.org/2000/svg" width="32" height="32" viewBox="0 0 32 32">
  <path id="Path_57696" data-name="Path 57696" d="M0,0H32V32H0Z" fill="none"/>
  <path id="Path_57697" data-name="Path 57697" d="M12,5.667a2.667,2.667,0,1,1,5.333,0,9.333,9.333,0,0,1,5.333,8v4a5.333,5.333,0,0,0,2.667,4H4a5.333,5.333,0,0,0,2.667-4v-4a9.333,9.333,0,0,1,5.333-8" transform="translate(1.333 1)" fill="none" stroke="#39383a" stroke-linecap="round" stroke-linejoin="round" stroke-width="1.8"/>
  <path id="Path_57698" data-name="Path 57698" d="M9,17v1.333a4,4,0,0,0,8,0V17" transform="translate(3 5.667)" fill="none" stroke="#39383a" stroke-linecap="round" stroke-linejoin="round" stroke-width="1.8"/>
  <path id="Path_57699" data-name="Path 57699" d="M21.931,7.969A14.733,14.733,0,0,0,18.206,3" transform="translate(6.069 1)" fill="none" stroke="#39383a" stroke-linecap="round" stroke-linejoin="round" stroke-width="1.8"/>
  <path id="Path_57700" data-name="Path 57700" d="M3,7.969A14.733,14.733,0,0,1,6.723,3" transform="translate(1 1)" fill="none" stroke="#39383a" stroke-linecap="round" stroke-linejoin="round" stroke-width="1.8"/>
</svg>
