<svg xmlns="http://www.w3.org/2000/svg" xmlns:xlink="http://www.w3.org/1999/xlink" width="27.886" height="40.834" viewBox="0 0 27.886 40.834">
  <defs>
    <clipPath id="clip-path">
      <rect id="Rectangle_148655" data-name="Rectangle 148655" width="27.886" height="40.834" transform="translate(0)" fill="#fff"/>
    </clipPath>
  </defs>
  <g id="Group_73233" data-name="Group 73233" clip-path="url(#clip-path)">
    <path id="Path_57283" data-name="Path 57283" d="M29.935,47.862a11.727,11.727,0,0,1,10.281,0l2.743-5.313-15.249.861,2.224,4.451Z" transform="translate(-21.407 -24.09)" fill="#1f0600"/>
    <path id="Path_57284" data-name="Path 57284" d="M27.949,55.313a3.83,3.83,0,0,1,.091,2.744c-.5,1.139-.181,2.094-7.813,2.094a3.221,3.221,0,0,0-2.726,3.46c.091,3.095,0,6.135,0,6.135H44.393s-.091-3.04,0-6.136a3.221,3.221,0,0,0-2.726-3.46c-7.632,0-7.357-.782-7.813-2.094a3.561,3.561,0,0,1,.227-2.744" transform="translate(-17.299 -29.225)" fill="#00090d"/>
    <path id="Path_57285" data-name="Path 57285" d="M36.618,47.622l3.69-.059.3,4.633H36.391Z" transform="translate(-24.9 -26.107)" fill="#e8cbb3"/>
    <path id="Path_57286" data-name="Path 57286" d="M42.583,29.488c0,4.877-5.026,8.831-7.9,8.831-3.059,0-7.9-3.955-7.9-8.831s3.538-10.561,7.9-10.561S42.583,24.61,42.583,29.488Z" transform="translate(-21.031 -14.586)" fill="#f4d9bf"/>
    <path id="Path_57287" data-name="Path 57287" d="M39.334,44.53c-.186,0-.635.4-.635.4l-.158-.164a.766.766,0,0,0-.478-.233,3.16,3.16,0,0,0-1.171.537,2.3,2.3,0,0,0,1.807.977,1.958,1.958,0,0,0,1.807-.977A3.026,3.026,0,0,0,39.334,44.53Z" transform="translate(-25.102 -24.887)" fill="#ab4d5c"/>
    <path id="Path_57288" data-name="Path 57288" d="M41.956,19.2c-1.754-7.026-9.206-7.163-9.206-7.163C25,11.549,22.334,16.284,21,18.469s-2.34,10.491-1.116,12.972c2.97,6.022,7.572,5.56,7.572,5.56-2.11-2.317-1.761-5.823-1.894-7.839a13.7,13.7,0,0,1,.192-3.327c5.878-1.04,11.209-6.154,11.209-6.154a16.209,16.209,0,0,1,1.6,4.823c.259,2.826-.7,11.028-2.735,12.505,0,0,7.044-2.055,7.346-7.377A43.823,43.823,0,0,0,41.955,19.2Z" transform="translate(-18.037 -11.799)" fill="#310a00"/>
    <path id="Path_57289" data-name="Path 57289" d="M48.562,31.125c-.309-.362-1.619-.639-3.415-.273s-3.179,1.184-3.251,2.025a2.879,2.879,0,0,0,2.824,2.807,3.631,3.631,0,0,0,2.813-1.27c.928-1.154,1.447-2.8,1.027-3.291Z" transform="translate(-27.113 -19.315)" fill="#e8e0da" fill-rule="evenodd"/>
    <path id="Path_57290" data-name="Path 57290" d="M26.678,31.125c.309-.362,1.619-.639,3.415-.273s3.179,1.184,3.249,2.025a2.879,2.879,0,0,1-2.824,2.807,3.631,3.631,0,0,1-2.813-1.27c-.928-1.154-1.447-2.8-1.028-3.291Z" transform="translate(-20.932 -19.315)" fill="#e8e0da" fill-rule="evenodd"/>
    <path id="Path_57291" data-name="Path 57291" d="M24.894,29.629a.723.723,0,0,0-.241.778.428.428,0,0,0,.1.141c.047.042.092.085.134.128a1.812,1.812,0,0,1,.3.47c.069.144.133.293.192.44.092.224.18.448.269.673a5.31,5.31,0,0,0,1.455,2.028A4.088,4.088,0,0,0,29.8,35.33a3.063,3.063,0,0,0,2.3-1.095,5.319,5.319,0,0,0,.613-.83c.064-.107.127-.216.186-.326.037-.069.073-.139.112-.208.144-.247.416-.7.747-.7s.6.451.747.7c.039.067.075.139.113.208.059.11.12.218.186.326a5.289,5.289,0,0,0,.613.83,3.068,3.068,0,0,0,2.3,1.095,4.085,4.085,0,0,0,2.688-1.042,5.322,5.322,0,0,0,1.455-2.028c.088-.225.175-.45.269-.673.061-.147.123-.3.192-.44a1.785,1.785,0,0,1,.3-.47,1.742,1.742,0,0,1,.134-.128.4.4,0,0,0,.1-.141.723.723,0,0,0-.241-.778,3.139,3.139,0,0,0-1.374-.368,9.333,9.333,0,0,0-2.382.1A8.983,8.983,0,0,0,35.3,30.885a2.52,2.52,0,0,1-3.088,0,8.989,8.989,0,0,0-3.565-1.519,9.334,9.334,0,0,0-2.382-.1,3.138,3.138,0,0,0-1.374.368Z" transform="translate(-20.161 -18.73)" fill="#ab4d5c" fill-rule="evenodd"/>
    <path id="Path_57292" data-name="Path 57292" d="M26.68,31.125c.309-.362,1.619-.639,3.415-.273s3.179,1.184,3.251,2.025a2.879,2.879,0,0,1-2.824,2.807,3.631,3.631,0,0,1-2.813-1.27c-.928-1.154-1.447-2.8-1.028-3.291Z" transform="translate(-20.934 -19.315)" fill="#00090d" fill-rule="evenodd"/>
    <path id="Path_57293" data-name="Path 57293" d="M48.563,31.125c-.309-.362-1.619-.639-3.415-.273s-3.179,1.184-3.249,2.025a2.879,2.879,0,0,0,2.824,2.807,3.631,3.631,0,0,0,2.813-1.27c.928-1.154,1.447-2.8,1.027-3.291Z" transform="translate(-27.114 -19.315)" fill="#00090d" fill-rule="evenodd"/>
    <path id="Path_57294" data-name="Path 57294" d="M38.785,23.552a20.458,20.458,0,0,1-11.867,6.932l-.07,6.362L22.218,25.04" transform="translate(-19.198 -16.447)" fill="#310a00" fill-rule="evenodd"/>
  </g>
</svg>
