<svg id="Group_74070" data-name="Group 74070" xmlns="http://www.w3.org/2000/svg" width="32" height="32" viewBox="0 0 32 32">
  <path id="Path_57701" data-name="Path 57701" d="M0,0H32V32H0Z" fill="none"/>
  <path id="Path_57702" data-name="Path 57702" d="M12.767,4.756a2.3,2.3,0,0,1,4.467,0,2.3,2.3,0,0,0,3.431,1.421,2.3,2.3,0,0,1,3.16,3.16,2.3,2.3,0,0,0,1.42,3.429,2.3,2.3,0,0,1,0,4.467,2.3,2.3,0,0,0-1.421,3.431,2.3,2.3,0,0,1-3.16,3.16,2.3,2.3,0,0,0-3.429,1.42,2.3,2.3,0,0,1-4.467,0,2.3,2.3,0,0,0-3.431-1.421,2.3,2.3,0,0,1-3.16-3.16,2.3,2.3,0,0,0-1.42-3.429,2.3,2.3,0,0,1,0-4.467A2.3,2.3,0,0,0,6.177,9.336a2.3,2.3,0,0,1,3.16-3.16,2.3,2.3,0,0,0,3.429-1.42Z" transform="translate(1 1)" fill="none" stroke="#39383a" stroke-linecap="round" stroke-linejoin="round" stroke-width="1.8"/>
  <path id="Path_57703" data-name="Path 57703" d="M9,13a4,4,0,1,0,4-4,4,4,0,0,0-4,4" transform="translate(3 3)" fill="none" stroke="#39383a" stroke-linecap="round" stroke-linejoin="round" stroke-width="1.8"/>
</svg>
